# xmcd CD database file
#
# Track frame offsets:
#	150
#	12560
#	23910
#	34987
#	49960
#	58157
#	67925
#	79467
#	90080
#	100245
#	110127
#	121400
#	132140
#	144245
#	154437
#	163415
#	176502
#	186392
#	194092
#	205887
#
# Disc length: 2915 seconds
#
# Revision: 2
# Processed by: cddbd v1.5.1PL0 Copyright (c) Steve Scherf et al.
# Submitted via: CDex 1.51
#
DISCID=2b0b6114
DTITLE=Various Artist - Country Greats
DYEAR=1996
DGENRE=Country
TTITLE0=Kenny Rogers and The First Edition/Reuben James
TTITLE1=Patsy Cline/Walkin' After Midnight
TTITLE2=Faron Young/Country Girl
TTITLE3=Willie Nelson/Face Of A Fighter
TTITLE4=Jim Reeves/Sweet Evening Breeze (Bring My Baby Back To Me) (Live)
TTITLE5=Stonewall Jackson/Shake 'Em Up, Roll 'Em
TTITLE6=Dolly Parton/Making Believe
TTITLE7=Boxcar Willie/Six Days On The Road
TTITLE8=Ferlin Husky/Wings Of A Dove
TTITLE9=Donna Fargo/Sticks And Stones
TTITLE10=Razzy Bailey/99,999,999 Tears
TTITLE11=Waylon Jennings/Sally Was A Good Old Girl
TTITLE12=Ron Drusky/Luckenbach Texas
TTITLE13=Barbara Mandrell/Kaw-Liga (Live)
TTITLE14=Kitty Wells/I'll Repossess My Heart
TTITLE15=Freddy Fender/That Girl Who Waits On Tables
TTITLE16=Mickey Gilley/Fraulein
TTITLE17=George Jones/Jambalaya
TTITLE18=Kenny Rogers/Elvira
TTITLE19=Boxcar Willie/North To Alaska
EXTD=
EXTT0=
EXTT1=
EXTT2=
EXTT3=
EXTT4=
EXTT5=
EXTT6=
EXTT7=
EXTT8=
EXTT9=
EXTT10=
EXTT11=
EXTT12=
EXTT13=
EXTT14=
EXTT15=
EXTT16=
EXTT17=
EXTT18=
EXTT19=
PLAYORDER=
